%TF.GenerationSoftware,KiCad,Pcbnew,(6.0.11)*%
%TF.CreationDate,2023-07-28T18:25:04-04:00*%
%TF.ProjectId,amoeba-king,616d6f65-6261-42d6-9b69-6e672e6b6963,rev?*%
%TF.SameCoordinates,Original*%
%TF.FileFunction,Other,Comment*%
%FSLAX46Y46*%
G04 Gerber Fmt 4.6, Leading zero omitted, Abs format (unit mm)*
G04 Created by KiCad (PCBNEW (6.0.11)) date 2023-07-28 18:25:04*
%MOMM*%
%LPD*%
G01*
G04 APERTURE LIST*
%ADD10C,0.150000*%
G04 APERTURE END LIST*
D10*
X75871780Y-155207580D02*
X75300352Y-155207580D01*
X75586066Y-155207580D02*
X75586066Y-154207580D01*
X75490828Y-154350438D01*
X75395590Y-154445676D01*
X75300352Y-154493295D01*
X76443209Y-154636152D02*
X76347971Y-154588533D01*
X76300352Y-154540914D01*
X76252733Y-154445676D01*
X76252733Y-154398057D01*
X76300352Y-154302819D01*
X76347971Y-154255200D01*
X76443209Y-154207580D01*
X76633685Y-154207580D01*
X76728923Y-154255200D01*
X76776542Y-154302819D01*
X76824161Y-154398057D01*
X76824161Y-154445676D01*
X76776542Y-154540914D01*
X76728923Y-154588533D01*
X76633685Y-154636152D01*
X76443209Y-154636152D01*
X76347971Y-154683771D01*
X76300352Y-154731390D01*
X76252733Y-154826628D01*
X76252733Y-155017104D01*
X76300352Y-155112342D01*
X76347971Y-155159961D01*
X76443209Y-155207580D01*
X76633685Y-155207580D01*
X76728923Y-155159961D01*
X76776542Y-155112342D01*
X76824161Y-155017104D01*
X76824161Y-154826628D01*
X76776542Y-154731390D01*
X76728923Y-154683771D01*
X76633685Y-154636152D01*
X77252733Y-155112342D02*
X77300352Y-155159961D01*
X77252733Y-155207580D01*
X77205114Y-155159961D01*
X77252733Y-155112342D01*
X77252733Y-155207580D01*
X77871780Y-154636152D02*
X77776542Y-154588533D01*
X77728923Y-154540914D01*
X77681304Y-154445676D01*
X77681304Y-154398057D01*
X77728923Y-154302819D01*
X77776542Y-154255200D01*
X77871780Y-154207580D01*
X78062257Y-154207580D01*
X78157495Y-154255200D01*
X78205114Y-154302819D01*
X78252733Y-154398057D01*
X78252733Y-154445676D01*
X78205114Y-154540914D01*
X78157495Y-154588533D01*
X78062257Y-154636152D01*
X77871780Y-154636152D01*
X77776542Y-154683771D01*
X77728923Y-154731390D01*
X77681304Y-154826628D01*
X77681304Y-155017104D01*
X77728923Y-155112342D01*
X77776542Y-155159961D01*
X77871780Y-155207580D01*
X78062257Y-155207580D01*
X78157495Y-155159961D01*
X78205114Y-155112342D01*
X78252733Y-155017104D01*
X78252733Y-154826628D01*
X78205114Y-154731390D01*
X78157495Y-154683771D01*
X78062257Y-154636152D01*
X79205114Y-155207580D02*
X78633685Y-155207580D01*
X78919400Y-155207580D02*
X78919400Y-154207580D01*
X78824161Y-154350438D01*
X78728923Y-154445676D01*
X78633685Y-154493295D01*
X79776542Y-154636152D02*
X79681304Y-154588533D01*
X79633685Y-154540914D01*
X79586066Y-154445676D01*
X79586066Y-154398057D01*
X79633685Y-154302819D01*
X79681304Y-154255200D01*
X79776542Y-154207580D01*
X79967019Y-154207580D01*
X80062257Y-154255200D01*
X80109876Y-154302819D01*
X80157495Y-154398057D01*
X80157495Y-154445676D01*
X80109876Y-154540914D01*
X80062257Y-154588533D01*
X79967019Y-154636152D01*
X79776542Y-154636152D01*
X79681304Y-154683771D01*
X79633685Y-154731390D01*
X79586066Y-154826628D01*
X79586066Y-155017104D01*
X79633685Y-155112342D01*
X79681304Y-155159961D01*
X79776542Y-155207580D01*
X79967019Y-155207580D01*
X80062257Y-155159961D01*
X80109876Y-155112342D01*
X80157495Y-155017104D01*
X80157495Y-154826628D01*
X80109876Y-154731390D01*
X80062257Y-154683771D01*
X79967019Y-154636152D01*
X80776542Y-154207580D02*
X80871780Y-154207580D01*
X80967019Y-154255200D01*
X81014638Y-154302819D01*
X81062257Y-154398057D01*
X81109876Y-154588533D01*
X81109876Y-154826628D01*
X81062257Y-155017104D01*
X81014638Y-155112342D01*
X80967019Y-155159961D01*
X80871780Y-155207580D01*
X80776542Y-155207580D01*
X80681304Y-155159961D01*
X80633685Y-155112342D01*
X80586066Y-155017104D01*
X80538447Y-154826628D01*
X80538447Y-154588533D01*
X80586066Y-154398057D01*
X80633685Y-154302819D01*
X80681304Y-154255200D01*
X80776542Y-154207580D01*
X82300352Y-155207580D02*
X82300352Y-154540914D01*
X82300352Y-154636152D02*
X82347971Y-154588533D01*
X82443209Y-154540914D01*
X82586066Y-154540914D01*
X82681304Y-154588533D01*
X82728923Y-154683771D01*
X82728923Y-155207580D01*
X82728923Y-154683771D02*
X82776542Y-154588533D01*
X82871780Y-154540914D01*
X83014638Y-154540914D01*
X83109876Y-154588533D01*
X83157495Y-154683771D01*
X83157495Y-155207580D01*
X83633685Y-155207580D02*
X83633685Y-154540914D01*
X83633685Y-154636152D02*
X83681304Y-154588533D01*
X83776542Y-154540914D01*
X83919400Y-154540914D01*
X84014638Y-154588533D01*
X84062257Y-154683771D01*
X84062257Y-155207580D01*
X84062257Y-154683771D02*
X84109876Y-154588533D01*
X84205114Y-154540914D01*
X84347971Y-154540914D01*
X84443209Y-154588533D01*
X84490828Y-154683771D01*
X84490828Y-155207580D01*
X70510400Y-169430700D02*
X70510400Y-155318780D01*
X89328400Y-169430700D02*
X89328400Y-155318780D01*
X70510400Y-155905200D02*
X89328400Y-155905200D01*
X70510400Y-155905200D02*
X89328400Y-155905200D01*
X70510400Y-155905200D02*
X71636904Y-156491621D01*
X70510400Y-155905200D02*
X71636904Y-155318779D01*
X89328400Y-155905200D02*
X88201896Y-155318779D01*
X89328400Y-155905200D02*
X88201896Y-156491621D01*
X57671580Y-172576619D02*
X57671580Y-173148047D01*
X57671580Y-172862333D02*
X56671580Y-172862333D01*
X56814438Y-172957571D01*
X56909676Y-173052809D01*
X56957295Y-173148047D01*
X56671580Y-171719476D02*
X56671580Y-171909952D01*
X56719200Y-172005190D01*
X56766819Y-172052809D01*
X56909676Y-172148047D01*
X57100152Y-172195666D01*
X57481104Y-172195666D01*
X57576342Y-172148047D01*
X57623961Y-172100428D01*
X57671580Y-172005190D01*
X57671580Y-171814714D01*
X57623961Y-171719476D01*
X57576342Y-171671857D01*
X57481104Y-171624238D01*
X57243009Y-171624238D01*
X57147771Y-171671857D01*
X57100152Y-171719476D01*
X57052533Y-171814714D01*
X57052533Y-172005190D01*
X57100152Y-172100428D01*
X57147771Y-172148047D01*
X57243009Y-172195666D01*
X57576342Y-171195666D02*
X57623961Y-171148047D01*
X57671580Y-171195666D01*
X57623961Y-171243285D01*
X57576342Y-171195666D01*
X57671580Y-171195666D01*
X56671580Y-170529000D02*
X56671580Y-170433761D01*
X56719200Y-170338523D01*
X56766819Y-170290904D01*
X56862057Y-170243285D01*
X57052533Y-170195666D01*
X57290628Y-170195666D01*
X57481104Y-170243285D01*
X57576342Y-170290904D01*
X57623961Y-170338523D01*
X57671580Y-170433761D01*
X57671580Y-170529000D01*
X57623961Y-170624238D01*
X57576342Y-170671857D01*
X57481104Y-170719476D01*
X57290628Y-170767095D01*
X57052533Y-170767095D01*
X56862057Y-170719476D01*
X56766819Y-170671857D01*
X56719200Y-170624238D01*
X56671580Y-170529000D01*
X56671580Y-169576619D02*
X56671580Y-169481380D01*
X56719200Y-169386142D01*
X56766819Y-169338523D01*
X56862057Y-169290904D01*
X57052533Y-169243285D01*
X57290628Y-169243285D01*
X57481104Y-169290904D01*
X57576342Y-169338523D01*
X57623961Y-169386142D01*
X57671580Y-169481380D01*
X57671580Y-169576619D01*
X57623961Y-169671857D01*
X57576342Y-169719476D01*
X57481104Y-169767095D01*
X57290628Y-169814714D01*
X57052533Y-169814714D01*
X56862057Y-169767095D01*
X56766819Y-169719476D01*
X56719200Y-169671857D01*
X56671580Y-169576619D01*
X56766819Y-168862333D02*
X56719200Y-168814714D01*
X56671580Y-168719476D01*
X56671580Y-168481380D01*
X56719200Y-168386142D01*
X56766819Y-168338523D01*
X56862057Y-168290904D01*
X56957295Y-168290904D01*
X57100152Y-168338523D01*
X57671580Y-168909952D01*
X57671580Y-168290904D01*
X56671580Y-167671857D02*
X56671580Y-167576619D01*
X56719200Y-167481380D01*
X56766819Y-167433761D01*
X56862057Y-167386142D01*
X57052533Y-167338523D01*
X57290628Y-167338523D01*
X57481104Y-167386142D01*
X57576342Y-167433761D01*
X57623961Y-167481380D01*
X57671580Y-167576619D01*
X57671580Y-167671857D01*
X57623961Y-167767095D01*
X57576342Y-167814714D01*
X57481104Y-167862333D01*
X57290628Y-167909952D01*
X57052533Y-167909952D01*
X56862057Y-167862333D01*
X56766819Y-167814714D01*
X56719200Y-167767095D01*
X56671580Y-167671857D01*
X57671580Y-166148047D02*
X57004914Y-166148047D01*
X57100152Y-166148047D02*
X57052533Y-166100428D01*
X57004914Y-166005190D01*
X57004914Y-165862333D01*
X57052533Y-165767095D01*
X57147771Y-165719476D01*
X57671580Y-165719476D01*
X57147771Y-165719476D02*
X57052533Y-165671857D01*
X57004914Y-165576619D01*
X57004914Y-165433761D01*
X57052533Y-165338523D01*
X57147771Y-165290904D01*
X57671580Y-165290904D01*
X57671580Y-164814714D02*
X57004914Y-164814714D01*
X57100152Y-164814714D02*
X57052533Y-164767095D01*
X57004914Y-164671857D01*
X57004914Y-164529000D01*
X57052533Y-164433761D01*
X57147771Y-164386142D01*
X57671580Y-164386142D01*
X57147771Y-164386142D02*
X57052533Y-164338523D01*
X57004914Y-164243285D01*
X57004914Y-164100428D01*
X57052533Y-164005190D01*
X57147771Y-163957571D01*
X57671580Y-163957571D01*
X66493000Y-160528000D02*
X57782780Y-160528000D01*
X66493000Y-176530000D02*
X57782780Y-176530000D01*
X58369200Y-160528000D02*
X58369200Y-176530000D01*
X58369200Y-160528000D02*
X58369200Y-176530000D01*
X58369200Y-160528000D02*
X57782779Y-161654504D01*
X58369200Y-160528000D02*
X58955621Y-161654504D01*
X58369200Y-176530000D02*
X58955621Y-175403496D01*
X58369200Y-176530000D02*
X57782779Y-175403496D01*
M02*
